<?xml version="1.0" encoding="UTF-8" standalone="no"?>
<!DOCTYPE svg PUBLIC "-//W3C//DTD SVG 1.1//EN"
 "http://www.w3.org/Graphics/SVG/1.1/DTD/svg11.dtd">
<!-- Generated by graphviz version 2.38.0 (20140413.2041)
 -->
<!-- Title: controllers_diagram Pages: 1 -->
<svg width="740pt" height="695pt"
 viewBox="0.00 0.00 739.50 695.00" xmlns="http://www.w3.org/2000/svg" xmlns:xlink="http://www.w3.org/1999/xlink">
<g id="graph0" class="graph" transform="scale(1 1) rotate(0) translate(308 387.5)">
<title>controllers_diagram</title>
<polygon fill="none" stroke="none" points="-308,307.5 -308,-387.5 431.5,-387.5 431.5,307.5 -308,307.5"/>
<!-- _diagram_info -->
<g id="node1" class="node"><title>_diagram_info</title>
<text text-anchor="start" x="104" y="-95.6" font-family="Times,serif" font-size="13.00">Controllers diagram</text>
<text text-anchor="start" x="104" y="-81.6" font-family="Times,serif" font-size="13.00">Date: Jun 06 2018 &#45; 19:31</text>
<text text-anchor="start" x="104" y="-67.6" font-family="Times,serif" font-size="13.00">Migration version: 20180419121028</text>
<text text-anchor="start" x="104" y="-53.6" font-family="Times,serif" font-size="13.00">Generated by RailRoady 1.5.3</text>
<text text-anchor="start" x="104" y="-39.6" font-family="Times,serif" font-size="13.00">http://railroady.prestonlee.com</text>
</g>
<!-- UserparamsController -->
<g id="node2" class="node"><title>UserparamsController</title>
<path fill="none" stroke="black" d="M-67.5,96C-67.5,96 45.5,96 45.5,96 51.5,96 57.5,90 57.5,84 57.5,84 57.5,-60 57.5,-60 57.5,-66 51.5,-72 45.5,-72 45.5,-72 -67.5,-72 -67.5,-72 -73.5,-72 -79.5,-66 -79.5,-60 -79.5,-60 -79.5,84 -79.5,84 -79.5,90 -73.5,96 -67.5,96"/>
<text text-anchor="middle" x="-11" y="-56.8" font-family="Times,serif" font-size="14.00">UserparamsController</text>
<polyline fill="none" stroke="black" points="-79.5,-49 57.5,-49 "/>
<text text-anchor="start" x="-71.5" y="-33.8" font-family="Times,serif" font-size="14.00">create</text>
<text text-anchor="start" x="-71.5" y="-18.8" font-family="Times,serif" font-size="14.00">edit</text>
<text text-anchor="start" x="-71.5" y="-3.8" font-family="Times,serif" font-size="14.00">new</text>
<text text-anchor="start" x="-71.5" y="11.2" font-family="Times,serif" font-size="14.00">profile</text>
<text text-anchor="start" x="-71.5" y="26.2" font-family="Times,serif" font-size="14.00">update</text>
<polyline fill="none" stroke="black" points="-79.5,34 57.5,34 "/>
<polyline fill="none" stroke="black" points="-79.5,58 57.5,58 "/>
<text text-anchor="start" x="-71.5" y="73.2" font-family="Times,serif" font-size="14.00">_layout</text>
<text text-anchor="start" x="-71.5" y="88.2" font-family="Times,serif" font-size="14.00">user_params</text>
</g>
<!-- ProductsController -->
<g id="node3" class="node"><title>ProductsController</title>
<path fill="none" stroke="black" d="M-195.5,-209C-195.5,-209 -100.5,-209 -100.5,-209 -94.5,-209 -88.5,-215 -88.5,-221 -88.5,-221 -88.5,-335 -88.5,-335 -88.5,-341 -94.5,-347 -100.5,-347 -100.5,-347 -195.5,-347 -195.5,-347 -201.5,-347 -207.5,-341 -207.5,-335 -207.5,-335 -207.5,-221 -207.5,-221 -207.5,-215 -201.5,-209 -195.5,-209"/>
<text text-anchor="middle" x="-148" y="-331.8" font-family="Times,serif" font-size="14.00">ProductsController</text>
<polyline fill="none" stroke="black" points="-207.5,-324 -88.5,-324 "/>
<text text-anchor="start" x="-199.5" y="-308.8" font-family="Times,serif" font-size="14.00">edit</text>
<text text-anchor="start" x="-199.5" y="-293.8" font-family="Times,serif" font-size="14.00">show</text>
<text text-anchor="start" x="-199.5" y="-278.8" font-family="Times,serif" font-size="14.00">update</text>
<polyline fill="none" stroke="black" points="-207.5,-271 -88.5,-271 "/>
<polyline fill="none" stroke="black" points="-207.5,-247 -88.5,-247 "/>
<text text-anchor="start" x="-199.5" y="-231.8" font-family="Times,serif" font-size="14.00">_layout</text>
<text text-anchor="start" x="-199.5" y="-216.8" font-family="Times,serif" font-size="14.00">product_params</text>
</g>
<!-- ApplicationController -->
<g id="node4" class="node"><title>ApplicationController</title>
<path fill="none" stroke="black" d="M-292,303C-292,303 -180,303 -180,303 -174,303 -168,297 -168,291 -168,291 -168,221 -168,221 -168,215 -174,209 -180,209 -180,209 -292,209 -292,209 -298,209 -304,215 -304,221 -304,221 -304,291 -304,291 -304,297 -298,303 -292,303"/>
<text text-anchor="middle" x="-236" y="224.2" font-family="Times,serif" font-size="14.00">ApplicationController</text>
<polyline fill="none" stroke="black" points="-304,232 -168,232 "/>
<polyline fill="none" stroke="black" points="-304,256 -168,256 "/>
<polyline fill="none" stroke="black" points="-304,280 -168,280 "/>
<text text-anchor="start" x="-296" y="295.2" font-family="Times,serif" font-size="14.00">_layout</text>
</g>
<!-- HomeController -->
<g id="node5" class="node"><title>HomeController</title>
<path fill="none" stroke="black" d="M-212,-1C-212,-1 -130,-1 -130,-1 -124,-1 -118,-7 -118,-13 -118,-13 -118,-127 -118,-127 -118,-133 -124,-139 -130,-139 -130,-139 -212,-139 -212,-139 -218,-139 -224,-133 -224,-127 -224,-127 -224,-13 -224,-13 -224,-7 -218,-1 -212,-1"/>
<text text-anchor="middle" x="-171" y="-123.8" font-family="Times,serif" font-size="14.00">HomeController</text>
<polyline fill="none" stroke="black" points="-224,-116 -118,-116 "/>
<text text-anchor="start" x="-216" y="-100.8" font-family="Times,serif" font-size="14.00">google_map</text>
<text text-anchor="start" x="-216" y="-85.8" font-family="Times,serif" font-size="14.00">index</text>
<text text-anchor="start" x="-216" y="-70.8" font-family="Times,serif" font-size="14.00">show</text>
<text text-anchor="start" x="-216" y="-55.8" font-family="Times,serif" font-size="14.00">task_params</text>
<polyline fill="none" stroke="black" points="-224,-48 -118,-48 "/>
<polyline fill="none" stroke="black" points="-224,-24 -118,-24 "/>
<text text-anchor="start" x="-216" y="-8.8" font-family="Times,serif" font-size="14.00">_layout</text>
</g>
<!-- CommentsController -->
<g id="node6" class="node"><title>CommentsController</title>
<path fill="none" stroke="black" d="M-52,-113C-52,-113 56,-113 56,-113 62,-113 68,-119 68,-125 68,-125 68,-239 68,-239 68,-245 62,-251 56,-251 56,-251 -52,-251 -52,-251 -58,-251 -64,-245 -64,-239 -64,-239 -64,-125 -64,-125 -64,-119 -58,-113 -52,-113"/>
<text text-anchor="middle" x="2" y="-235.8" font-family="Times,serif" font-size="14.00">CommentsController</text>
<polyline fill="none" stroke="black" points="-64,-228 68,-228 "/>
<text text-anchor="start" x="-56" y="-212.8" font-family="Times,serif" font-size="14.00">create</text>
<text text-anchor="start" x="-56" y="-197.8" font-family="Times,serif" font-size="14.00">destroy</text>
<text text-anchor="start" x="-56" y="-182.8" font-family="Times,serif" font-size="14.00">show</text>
<polyline fill="none" stroke="black" points="-64,-175 68,-175 "/>
<polyline fill="none" stroke="black" points="-64,-151 68,-151 "/>
<text text-anchor="start" x="-56" y="-135.8" font-family="Times,serif" font-size="14.00">_layout</text>
<text text-anchor="start" x="-56" y="-120.8" font-family="Times,serif" font-size="14.00">comment_params</text>
</g>
<!-- OrdersController -->
<g id="node7" class="node"><title>OrdersController</title>
<path fill="none" stroke="black" d="M-211.5,175C-211.5,175 -126.5,175 -126.5,175 -120.5,175 -114.5,169 -114.5,163 -114.5,163 -114.5,49 -114.5,49 -114.5,43 -120.5,37 -126.5,37 -126.5,37 -211.5,37 -211.5,37 -217.5,37 -223.5,43 -223.5,49 -223.5,49 -223.5,163 -223.5,163 -223.5,169 -217.5,175 -211.5,175"/>
<text text-anchor="middle" x="-169" y="52.2" font-family="Times,serif" font-size="14.00">OrdersController</text>
<polyline fill="none" stroke="black" points="-223.5,60 -114.5,60 "/>
<text text-anchor="start" x="-215.5" y="75.2" font-family="Times,serif" font-size="14.00">delete</text>
<text text-anchor="start" x="-215.5" y="90.2" font-family="Times,serif" font-size="14.00">index</text>
<text text-anchor="start" x="-215.5" y="105.2" font-family="Times,serif" font-size="14.00">new</text>
<text text-anchor="start" x="-215.5" y="120.2" font-family="Times,serif" font-size="14.00">pay</text>
<polyline fill="none" stroke="black" points="-223.5,128 -114.5,128 "/>
<polyline fill="none" stroke="black" points="-223.5,152 -114.5,152 "/>
<text text-anchor="start" x="-215.5" y="167.2" font-family="Times,serif" font-size="14.00">_layout</text>
</g>
<!-- Users::PasswordsController -->
<g id="node8" class="node"><title>Users::PasswordsController</title>
<path fill="none" stroke="black" d="M235.5,223C235.5,223 378.5,223 378.5,223 384.5,223 390.5,217 390.5,211 390.5,211 390.5,141 390.5,141 390.5,135 384.5,129 378.5,129 378.5,129 235.5,129 235.5,129 229.5,129 223.5,135 223.5,141 223.5,141 223.5,211 223.5,211 223.5,217 229.5,223 235.5,223"/>
<text text-anchor="middle" x="307" y="144.2" font-family="Times,serif" font-size="14.00">Users::PasswordsController</text>
<polyline fill="none" stroke="black" points="223.5,152 390.5,152 "/>
<polyline fill="none" stroke="black" points="223.5,176 390.5,176 "/>
<polyline fill="none" stroke="black" points="223.5,200 390.5,200 "/>
<text text-anchor="start" x="231.5" y="215.2" font-family="Times,serif" font-size="14.00">_layout</text>
</g>
<!-- Users::UnlocksController -->
<g id="node9" class="node"><title>Users::UnlocksController</title>
<path fill="none" stroke="black" d="M284.5,-273C284.5,-273 415.5,-273 415.5,-273 421.5,-273 427.5,-279 427.5,-285 427.5,-285 427.5,-355 427.5,-355 427.5,-361 421.5,-367 415.5,-367 415.5,-367 284.5,-367 284.5,-367 278.5,-367 272.5,-361 272.5,-355 272.5,-355 272.5,-285 272.5,-285 272.5,-279 278.5,-273 284.5,-273"/>
<text text-anchor="middle" x="350" y="-351.8" font-family="Times,serif" font-size="14.00">Users::UnlocksController</text>
<polyline fill="none" stroke="black" points="272.5,-344 427.5,-344 "/>
<polyline fill="none" stroke="black" points="272.5,-320 427.5,-320 "/>
<polyline fill="none" stroke="black" points="272.5,-296 427.5,-296 "/>
<text text-anchor="start" x="280.5" y="-280.8" font-family="Times,serif" font-size="14.00">_layout</text>
</g>
<!-- Users::OmniauthCallbacksController -->
<g id="node10" class="node"><title>Users::OmniauthCallbacksController</title>
<path fill="none" stroke="black" d="M108,95C108,95 302,95 302,95 308,95 314,89 314,83 314,83 314,13 314,13 314,7 308,1 302,1 302,1 108,1 108,1 102,1 96,7 96,13 96,13 96,83 96,83 96,89 102,95 108,95"/>
<text text-anchor="middle" x="205" y="16.2" font-family="Times,serif" font-size="14.00">Users::OmniauthCallbacksController</text>
<polyline fill="none" stroke="black" points="96,24 314,24 "/>
<polyline fill="none" stroke="black" points="96,48 314,48 "/>
<polyline fill="none" stroke="black" points="96,72 314,72 "/>
<text text-anchor="start" x="104" y="87.2" font-family="Times,serif" font-size="14.00">_layout</text>
</g>
<!-- Users::SessionsController -->
<g id="node11" class="node"><title>Users::SessionsController</title>
<path fill="none" stroke="black" d="M92.5,-289C92.5,-289 225.5,-289 225.5,-289 231.5,-289 237.5,-295 237.5,-301 237.5,-301 237.5,-371 237.5,-371 237.5,-377 231.5,-383 225.5,-383 225.5,-383 92.5,-383 92.5,-383 86.5,-383 80.5,-377 80.5,-371 80.5,-371 80.5,-301 80.5,-301 80.5,-295 86.5,-289 92.5,-289"/>
<text text-anchor="middle" x="159" y="-367.8" font-family="Times,serif" font-size="14.00">Users::SessionsController</text>
<polyline fill="none" stroke="black" points="80.5,-360 237.5,-360 "/>
<polyline fill="none" stroke="black" points="80.5,-336 237.5,-336 "/>
<polyline fill="none" stroke="black" points="80.5,-312 237.5,-312 "/>
<text text-anchor="start" x="88.5" y="-296.8" font-family="Times,serif" font-size="14.00">_layout</text>
</g>
<!-- Users::RegistrationsController -->
<g id="node12" class="node"><title>Users::RegistrationsController</title>
<path fill="none" stroke="black" d="M156,-144.5C156,-144.5 314,-144.5 314,-144.5 320,-144.5 326,-150.5 326,-156.5 326,-156.5 326,-225.5 326,-225.5 326,-231.5 320,-237.5 314,-237.5 314,-237.5 156,-237.5 156,-237.5 150,-237.5 144,-231.5 144,-225.5 144,-225.5 144,-156.5 144,-156.5 144,-150.5 150,-144.5 156,-144.5"/>
<text text-anchor="middle" x="235" y="-222.3" font-family="Times,serif" font-size="14.00">Users::RegistrationsController</text>
<polyline fill="none" stroke="black" points="144,-214.5 326,-214.5 "/>
<text text-anchor="start" x="152" y="-199.3" font-family="Times,serif" font-size="14.00">after_sign_up_path_for</text>
<polyline fill="none" stroke="black" points="144,-191.5 326,-191.5 "/>
<polyline fill="none" stroke="black" points="144,-167.5 326,-167.5 "/>
<text text-anchor="start" x="152" y="-152.3" font-family="Times,serif" font-size="14.00">_layout</text>
</g>
<!-- Users::ConfirmationsController -->
<g id="node13" class="node"><title>Users::ConfirmationsController</title>
<path fill="none" stroke="black" d="M12.5,223C12.5,223 177.5,223 177.5,223 183.5,223 189.5,217 189.5,211 189.5,211 189.5,141 189.5,141 189.5,135 183.5,129 177.5,129 177.5,129 12.5,129 12.5,129 6.5,129 0.5,135 0.5,141 0.5,141 0.5,211 0.5,211 0.5,217 6.5,223 12.5,223"/>
<text text-anchor="middle" x="95" y="144.2" font-family="Times,serif" font-size="14.00">Users::ConfirmationsController</text>
<polyline fill="none" stroke="black" points="0.5,152 189.5,152 "/>
<polyline fill="none" stroke="black" points="0.5,176 189.5,176 "/>
<polyline fill="none" stroke="black" points="0.5,200 189.5,200 "/>
<text text-anchor="start" x="8.5" y="215.2" font-family="Times,serif" font-size="14.00">_layout</text>
</g>
</g>
</svg>
