<?xml version="1.0" encoding="UTF-8" standalone="no"?>
<!DOCTYPE svg PUBLIC "-//W3C//DTD SVG 1.1//EN"
 "http://www.w3.org/Graphics/SVG/1.1/DTD/svg11.dtd">
<!-- Generated by graphviz version 2.38.0 (20140413.2041)
 -->
<!-- Title: models_diagram Pages: 1 -->
<svg width="777pt" height="158pt"
 viewBox="0.00 0.00 777.00 158.00" xmlns="http://www.w3.org/2000/svg" xmlns:xlink="http://www.w3.org/1999/xlink">
<g id="graph0" class="graph" transform="scale(1 1) rotate(0) translate(4 154)">
<title>models_diagram</title>
<polygon fill="none" stroke="none" points="-4,4 -4,-154 772.995,-154 772.995,4 -4,4"/>
<!-- _diagram_info -->
<g id="node1" class="node"><title>_diagram_info</title>
<text text-anchor="start" x="8" y="-135.6" font-family="Times,serif" font-size="13.00">Models diagram</text>
<text text-anchor="start" x="8" y="-121.6" font-family="Times,serif" font-size="13.00">Date: Jun 06 2018 &#45; 19:31</text>
<text text-anchor="start" x="8" y="-107.6" font-family="Times,serif" font-size="13.00">Migration version: 20180419121028</text>
<text text-anchor="start" x="8" y="-93.6" font-family="Times,serif" font-size="13.00">Generated by RailRoady 1.5.3</text>
<text text-anchor="start" x="8" y="-79.6" font-family="Times,serif" font-size="13.00">http://railroady.prestonlee.com</text>
</g>
<!-- Model -->
<g id="node2" class="node"><title>Model</title>
<ellipse fill="none" stroke="black" cx="266" cy="-111" rx="34.394" ry="18"/>
<text text-anchor="middle" x="266" y="-107.3" font-family="Times,serif" font-size="14.00">Model</text>
</g>
<!-- ApplicationRecord -->
<g id="node3" class="node"><title>ApplicationRecord</title>
<ellipse fill="none" stroke="black" cx="396" cy="-111" rx="77.1866" ry="18"/>
<text text-anchor="middle" x="396" y="-107.3" font-family="Times,serif" font-size="14.00">ApplicationRecord</text>
</g>
<!-- Userparam -->
<g id="node4" class="node"><title>Userparam</title>
<ellipse fill="none" stroke="black" cx="420" cy="-18" rx="50.0912" ry="18"/>
<text text-anchor="middle" x="420" y="-14.3" font-family="Times,serif" font-size="14.00">Userparam</text>
</g>
<!-- Comment -->
<g id="node5" class="node"><title>Comment</title>
<ellipse fill="none" stroke="black" cx="614" cy="-18" rx="46.2923" ry="18"/>
<text text-anchor="middle" x="614" y="-14.3" font-family="Times,serif" font-size="14.00">Comment</text>
</g>
<!-- Product -->
<g id="node6" class="node"><title>Product</title>
<ellipse fill="none" stroke="black" cx="609" cy="-111" rx="38.1938" ry="18"/>
<text text-anchor="middle" x="609" y="-107.3" font-family="Times,serif" font-size="14.00">Product</text>
</g>
<!-- Product&#45;&gt;Comment -->
<g id="edge1" class="edge"><title>Product&#45;&gt;Comment</title>
<path fill="none" stroke="#9144bb" d="M610.389,-84.7285C611.048,-72.7246 611.837,-58.3622 612.509,-46.1291"/>
<ellipse fill="none" stroke="#9144bb" cx="610.16" cy="-88.8896" rx="4" ry="4"/>
<polygon fill="#9144bb" stroke="#9144bb" points="612.515,-46.0246 617.557,-36.2866 612.789,-41.0321 613.064,-36.0397 613.064,-36.0397 613.064,-36.0397 612.789,-41.0321 608.571,-35.7927 612.515,-46.0246 612.515,-46.0246"/>
</g>
<!-- Order -->
<g id="node7" class="node"><title>Order</title>
<ellipse fill="none" stroke="black" cx="519" cy="-18" rx="31.3957" ry="18"/>
<text text-anchor="middle" x="519" y="-14.3" font-family="Times,serif" font-size="14.00">Order</text>
</g>
<!-- Product&#45;&gt;Order -->
<g id="edge2" class="edge"><title>Product&#45;&gt;Order</title>
<path fill="none" stroke="#16cf70" d="M587.519,-88.2803C573.556,-74.1625 555.392,-55.7964 541.274,-41.5216"/>
<ellipse fill="none" stroke="#16cf70" cx="590.51" cy="-91.305" rx="4.00002" ry="4.00002"/>
<polygon fill="#16cf70" stroke="#16cf70" points="540.931,-41.1751 537.099,-30.9007 537.415,-37.6201 533.9,-34.0651 533.9,-34.0651 533.9,-34.0651 537.415,-37.6201 530.7,-37.2294 540.931,-41.1751 540.931,-41.1751"/>
</g>
<!-- User -->
<g id="node8" class="node"><title>User</title>
<ellipse fill="none" stroke="black" cx="519" cy="-111" rx="27.0966" ry="18"/>
<text text-anchor="middle" x="519" y="-107.3" font-family="Times,serif" font-size="14.00">User</text>
</g>
<!-- User&#45;&gt;Userparam -->
<g id="edge3" class="edge"><title>User&#45;&gt;Userparam</title>
<path fill="none" stroke="#f7196a" d="M499.491,-89.2777C493.942,-83.5731 487.822,-77.4565 482,-72 470.426,-61.1527 457.111,-49.6508 445.793,-40.1439"/>
<ellipse fill="none" stroke="#f7196a" cx="502.473" cy="-92.3741" rx="4.00002" ry="4.00002"/>
<ellipse fill="#f7196a" stroke="#f7196a" cx="442.459" cy="-37.3605" rx="4.00002" ry="4.00002"/>
</g>
<!-- User&#45;&gt;Comment -->
<g id="edge4" class="edge"><title>User&#45;&gt;Comment</title>
<path fill="none" stroke="#e55f34" d="M539.865,-90.0138C554.572,-75.9255 574.314,-57.0149 589.727,-42.2505"/>
<ellipse fill="none" stroke="#e55f34" cx="536.732" cy="-93.0143" rx="4.00002" ry="4.00002"/>
<polygon fill="#e55f34" stroke="#e55f34" points="590.122,-41.8726 600.456,-38.2048 593.733,-38.4138 597.344,-34.9551 597.344,-34.9551 597.344,-34.9551 593.733,-38.4138 594.231,-31.7055 590.122,-41.8726 590.122,-41.8726"/>
</g>
<!-- User&#45;&gt;Order -->
<g id="edge5" class="edge"><title>User&#45;&gt;Order</title>
<path fill="none" stroke="#632525" d="M519,-84.7285C519,-72.7246 519,-58.3622 519,-46.1291"/>
<ellipse fill="none" stroke="#632525" cx="519" cy="-88.8836" rx="4" ry="4"/>
<polygon fill="#632525" stroke="#632525" points="519,-46.0397 523.5,-36.0396 519,-41.0397 519,-36.0397 519,-36.0397 519,-36.0397 519,-41.0397 514.5,-36.0397 519,-46.0397 519,-46.0397"/>
</g>
<!-- AdminUser -->
<g id="node9" class="node"><title>AdminUser</title>
<ellipse fill="none" stroke="black" cx="717" cy="-111" rx="51.9908" ry="18"/>
<text text-anchor="middle" x="717" y="-107.3" font-family="Times,serif" font-size="14.00">AdminUser</text>
</g>
</g>
</svg>
