<?xml version="1.0" encoding="UTF-8" standalone="no"?>
<!DOCTYPE svg PUBLIC "-//W3C//DTD SVG 1.1//EN"
 "http://www.w3.org/Graphics/SVG/1.1/DTD/svg11.dtd">
<!-- Generated by graphviz version 2.38.0 (20140413.2041)
 -->
<!-- Title: models_diagram Pages: 1 -->
<svg width="1020pt" height="498pt"
 viewBox="0.00 0.00 1020.00 498.00" xmlns="http://www.w3.org/2000/svg" xmlns:xlink="http://www.w3.org/1999/xlink">
<g id="graph0" class="graph" transform="scale(1 1) rotate(0) translate(4 494)">
<title>models_diagram</title>
<polygon fill="none" stroke="none" points="-4,4 -4,-494 1016,-494 1016,4 -4,4"/>
<!-- _diagram_info -->
<g id="node1" class="node"><title>_diagram_info</title>
<text text-anchor="start" x="8" y="-386.1" font-family="Times,serif" font-size="13.00">Models diagram</text>
<text text-anchor="start" x="8" y="-372.1" font-family="Times,serif" font-size="13.00">Date: Jun 06 2018 &#45; 19:31</text>
<text text-anchor="start" x="8" y="-358.1" font-family="Times,serif" font-size="13.00">Migration version: 20180419121028</text>
<text text-anchor="start" x="8" y="-344.1" font-family="Times,serif" font-size="13.00">Generated by RailRoady 1.5.3</text>
<text text-anchor="start" x="8" y="-330.1" font-family="Times,serif" font-size="13.00">http://railroady.prestonlee.com</text>
</g>
<!-- ApplicationRecord -->
<g id="node2" class="node"><title>ApplicationRecord</title>
<ellipse fill="none" stroke="black" cx="309" cy="-361.5" rx="77.1866" ry="18"/>
<text text-anchor="middle" x="309" y="-357.8" font-family="Times,serif" font-size="14.00">ApplicationRecord</text>
</g>
<!-- Userparam -->
<g id="node3" class="node"><title>Userparam</title>
<path fill="none" stroke="black" d="M313,-0.5C313,-0.5 463,-0.5 463,-0.5 469,-0.5 475,-6.5 475,-12.5 475,-12.5 475,-184.5 475,-184.5 475,-190.5 469,-196.5 463,-196.5 463,-196.5 313,-196.5 313,-196.5 307,-196.5 301,-190.5 301,-184.5 301,-184.5 301,-12.5 301,-12.5 301,-6.5 307,-0.5 313,-0.5"/>
<text text-anchor="middle" x="388" y="-181.3" font-family="Times,serif" font-size="14.00">Userparam</text>
<polyline fill="none" stroke="black" points="301,-173.5 475,-173.5 "/>
<text text-anchor="start" x="309" y="-158.3" font-family="Times,serif" font-size="14.00">id :INTEGER</text>
<text text-anchor="start" x="309" y="-143.3" font-family="Times,serif" font-size="14.00">firstname :varchar</text>
<text text-anchor="start" x="309" y="-128.3" font-family="Times,serif" font-size="14.00">lastname :varchar</text>
<text text-anchor="start" x="309" y="-113.3" font-family="Times,serif" font-size="14.00">city :varchar</text>
<text text-anchor="start" x="309" y="-98.3" font-family="Times,serif" font-size="14.00">user_id :integer</text>
<text text-anchor="start" x="309" y="-83.3" font-family="Times,serif" font-size="14.00">created_at :datetime</text>
<text text-anchor="start" x="309" y="-68.3" font-family="Times,serif" font-size="14.00">updated_at :datetime</text>
<text text-anchor="start" x="309" y="-53.3" font-family="Times,serif" font-size="14.00">avatar_file_name :varchar</text>
<text text-anchor="start" x="309" y="-38.3" font-family="Times,serif" font-size="14.00">avatar_content_type :varchar</text>
<text text-anchor="start" x="309" y="-23.3" font-family="Times,serif" font-size="14.00">avatar_file_size :integer</text>
<text text-anchor="start" x="309" y="-8.3" font-family="Times,serif" font-size="14.00">avatar_updated_at :datetime</text>
</g>
<!-- Comment -->
<g id="node4" class="node"><title>Comment</title>
<path fill="none" stroke="black" d="M654.5,-38C654.5,-38 761.5,-38 761.5,-38 767.5,-38 773.5,-44 773.5,-50 773.5,-50 773.5,-147 773.5,-147 773.5,-153 767.5,-159 761.5,-159 761.5,-159 654.5,-159 654.5,-159 648.5,-159 642.5,-153 642.5,-147 642.5,-147 642.5,-50 642.5,-50 642.5,-44 648.5,-38 654.5,-38"/>
<text text-anchor="middle" x="708" y="-143.8" font-family="Times,serif" font-size="14.00">Comment</text>
<polyline fill="none" stroke="black" points="642.5,-136 773.5,-136 "/>
<text text-anchor="start" x="650.5" y="-120.8" font-family="Times,serif" font-size="14.00">id :INTEGER</text>
<text text-anchor="start" x="650.5" y="-105.8" font-family="Times,serif" font-size="14.00">user_id :integer</text>
<text text-anchor="start" x="650.5" y="-90.8" font-family="Times,serif" font-size="14.00">product_id :integer</text>
<text text-anchor="start" x="650.5" y="-75.8" font-family="Times,serif" font-size="14.00">body :varchar</text>
<text text-anchor="start" x="650.5" y="-60.8" font-family="Times,serif" font-size="14.00">created_at :datetime</text>
<text text-anchor="start" x="650.5" y="-45.8" font-family="Times,serif" font-size="14.00">updated_at :datetime</text>
</g>
<!-- Product -->
<g id="node5" class="node"><title>Product</title>
<path fill="none" stroke="black" d="M634,-233.5C634,-233.5 782,-233.5 782,-233.5 788,-233.5 794,-239.5 794,-245.5 794,-245.5 794,-477.5 794,-477.5 794,-483.5 788,-489.5 782,-489.5 782,-489.5 634,-489.5 634,-489.5 628,-489.5 622,-483.5 622,-477.5 622,-477.5 622,-245.5 622,-245.5 622,-239.5 628,-233.5 634,-233.5"/>
<text text-anchor="middle" x="708" y="-474.3" font-family="Times,serif" font-size="14.00">Product</text>
<polyline fill="none" stroke="black" points="622,-466.5 794,-466.5 "/>
<text text-anchor="start" x="630" y="-451.3" font-family="Times,serif" font-size="14.00">id :INTEGER</text>
<text text-anchor="start" x="630" y="-436.3" font-family="Times,serif" font-size="14.00">prname :varchar</text>
<text text-anchor="start" x="630" y="-421.3" font-family="Times,serif" font-size="14.00">maker :varchar</text>
<text text-anchor="start" x="630" y="-406.3" font-family="Times,serif" font-size="14.00">description :varchar</text>
<text text-anchor="start" x="630" y="-391.3" font-family="Times,serif" font-size="14.00">year :integer</text>
<text text-anchor="start" x="630" y="-376.3" font-family="Times,serif" font-size="14.00">cost :float</text>
<text text-anchor="start" x="630" y="-361.3" font-family="Times,serif" font-size="14.00">is_here :boolean</text>
<text text-anchor="start" x="630" y="-346.3" font-family="Times,serif" font-size="14.00">created_at :datetime</text>
<text text-anchor="start" x="630" y="-331.3" font-family="Times,serif" font-size="14.00">updated_at :datetime</text>
<text text-anchor="start" x="630" y="-316.3" font-family="Times,serif" font-size="14.00">photo_file_name :varchar</text>
<text text-anchor="start" x="630" y="-301.3" font-family="Times,serif" font-size="14.00">photo_content_type :varchar</text>
<text text-anchor="start" x="630" y="-286.3" font-family="Times,serif" font-size="14.00">photo_file_size :integer</text>
<text text-anchor="start" x="630" y="-271.3" font-family="Times,serif" font-size="14.00">photo_updated_at :datetime</text>
<text text-anchor="start" x="630" y="-256.3" font-family="Times,serif" font-size="14.00">lat :float</text>
<text text-anchor="start" x="630" y="-241.3" font-family="Times,serif" font-size="14.00">lng :float</text>
</g>
<!-- Product&#45;&gt;Comment -->
<g id="edge1" class="edge"><title>Product&#45;&gt;Comment</title>
<path fill="none" stroke="#37525f" d="M708,-225.235C708,-205.852 708,-186.61 708,-169.221"/>
<ellipse fill="none" stroke="#37525f" cx="708" cy="-229.441" rx="4" ry="4"/>
<polygon fill="#37525f" stroke="#37525f" points="708,-169.21 712.5,-159.21 708,-164.21 708,-159.21 708,-159.21 708,-159.21 708,-164.21 703.5,-159.21 708,-169.21 708,-169.21"/>
</g>
<!-- Order -->
<g id="node6" class="node"><title>Order</title>
<path fill="none" stroke="black" d="M505.5,-30.5C505.5,-30.5 612.5,-30.5 612.5,-30.5 618.5,-30.5 624.5,-36.5 624.5,-42.5 624.5,-42.5 624.5,-154.5 624.5,-154.5 624.5,-160.5 618.5,-166.5 612.5,-166.5 612.5,-166.5 505.5,-166.5 505.5,-166.5 499.5,-166.5 493.5,-160.5 493.5,-154.5 493.5,-154.5 493.5,-42.5 493.5,-42.5 493.5,-36.5 499.5,-30.5 505.5,-30.5"/>
<text text-anchor="middle" x="559" y="-151.3" font-family="Times,serif" font-size="14.00">Order</text>
<polyline fill="none" stroke="black" points="493.5,-143.5 624.5,-143.5 "/>
<text text-anchor="start" x="501.5" y="-128.3" font-family="Times,serif" font-size="14.00">id :INTEGER</text>
<text text-anchor="start" x="501.5" y="-113.3" font-family="Times,serif" font-size="14.00">user_id :integer</text>
<text text-anchor="start" x="501.5" y="-98.3" font-family="Times,serif" font-size="14.00">product_id :integer</text>
<text text-anchor="start" x="501.5" y="-83.3" font-family="Times,serif" font-size="14.00">cost :float</text>
<text text-anchor="start" x="501.5" y="-68.3" font-family="Times,serif" font-size="14.00">created_at :datetime</text>
<text text-anchor="start" x="501.5" y="-53.3" font-family="Times,serif" font-size="14.00">updated_at :datetime</text>
<text text-anchor="start" x="501.5" y="-38.3" font-family="Times,serif" font-size="14.00">is_cart :boolean</text>
</g>
<!-- Product&#45;&gt;Order -->
<g id="edge2" class="edge"><title>Product&#45;&gt;Order</title>
<path fill="none" stroke="#c17575" d="M631.449,-226.408C621.463,-208.916 611.526,-191.509 602.357,-175.447"/>
<ellipse fill="none" stroke="#c17575" cx="633.481" cy="-229.967" rx="4.00002" ry="4.00002"/>
<polygon fill="#c17575" stroke="#c17575" points="602.304,-175.355 601.254,-164.439 599.825,-171.013 597.346,-166.67 597.346,-166.67 597.346,-166.67 599.825,-171.013 593.438,-168.901 602.304,-175.355 602.304,-175.355"/>
</g>
<!-- User -->
<g id="node7" class="node"><title>User</title>
<path fill="none" stroke="black" d="M416,-248.5C416,-248.5 592,-248.5 592,-248.5 598,-248.5 604,-254.5 604,-260.5 604,-260.5 604,-462.5 604,-462.5 604,-468.5 598,-474.5 592,-474.5 592,-474.5 416,-474.5 416,-474.5 410,-474.5 404,-468.5 404,-462.5 404,-462.5 404,-260.5 404,-260.5 404,-254.5 410,-248.5 416,-248.5"/>
<text text-anchor="middle" x="504" y="-459.3" font-family="Times,serif" font-size="14.00">User</text>
<polyline fill="none" stroke="black" points="404,-451.5 604,-451.5 "/>
<text text-anchor="start" x="412" y="-436.3" font-family="Times,serif" font-size="14.00">id :INTEGER</text>
<text text-anchor="start" x="412" y="-421.3" font-family="Times,serif" font-size="14.00">email :varchar</text>
<text text-anchor="start" x="412" y="-406.3" font-family="Times,serif" font-size="14.00">encrypted_password :varchar</text>
<text text-anchor="start" x="412" y="-391.3" font-family="Times,serif" font-size="14.00">reset_password_token :varchar</text>
<text text-anchor="start" x="412" y="-376.3" font-family="Times,serif" font-size="14.00">reset_password_sent_at :datetime</text>
<text text-anchor="start" x="412" y="-361.3" font-family="Times,serif" font-size="14.00">remember_created_at :datetime</text>
<text text-anchor="start" x="412" y="-346.3" font-family="Times,serif" font-size="14.00">sign_in_count :integer</text>
<text text-anchor="start" x="412" y="-331.3" font-family="Times,serif" font-size="14.00">current_sign_in_at :datetime</text>
<text text-anchor="start" x="412" y="-316.3" font-family="Times,serif" font-size="14.00">last_sign_in_at :datetime</text>
<text text-anchor="start" x="412" y="-301.3" font-family="Times,serif" font-size="14.00">current_sign_in_ip :varchar</text>
<text text-anchor="start" x="412" y="-286.3" font-family="Times,serif" font-size="14.00">last_sign_in_ip :varchar</text>
<text text-anchor="start" x="412" y="-271.3" font-family="Times,serif" font-size="14.00">created_at :datetime</text>
<text text-anchor="start" x="412" y="-256.3" font-family="Times,serif" font-size="14.00">updated_at :datetime</text>
</g>
<!-- User&#45;&gt;Userparam -->
<g id="edge3" class="edge"><title>User&#45;&gt;Userparam</title>
<path fill="none" stroke="#5250a7" d="M450.731,-240.644C445.33,-228.491 439.873,-216.215 434.551,-204.239"/>
<ellipse fill="none" stroke="#5250a7" cx="452.508" cy="-244.643" rx="4.00002" ry="4.00002"/>
<ellipse fill="#5250a7" stroke="#5250a7" cx="432.881" cy="-200.481" rx="4.00002" ry="4.00002"/>
</g>
<!-- User&#45;&gt;Comment -->
<g id="edge4" class="edge"><title>User&#45;&gt;Comment</title>
<path fill="none" stroke="#c08980" d="M598.925,-241.756C610.786,-226.731 622.709,-211.534 634,-197 641.458,-187.4 649.278,-177.222 656.926,-167.203"/>
<ellipse fill="none" stroke="#c08980" cx="596.327" cy="-245.045" rx="4.00002" ry="4.00002"/>
<polygon fill="#c08980" stroke="#c08980" points="656.951,-167.17 666.592,-161.944 659.982,-163.193 663.013,-159.216 663.013,-159.216 663.013,-159.216 659.982,-163.193 659.434,-156.489 656.951,-167.17 656.951,-167.17"/>
</g>
<!-- User&#45;&gt;Order -->
<g id="edge5" class="edge"><title>User&#45;&gt;Order</title>
<path fill="none" stroke="#14fb49" d="M529.295,-240.462C533.86,-218.803 538.505,-196.758 542.725,-176.732"/>
<ellipse fill="none" stroke="#14fb49" cx="528.469" cy="-244.384" rx="4.00001" ry="4.00001"/>
<polygon fill="#14fb49" stroke="#14fb49" points="542.763,-176.552 549.228,-167.695 543.794,-171.66 544.825,-166.767 544.825,-166.767 544.825,-166.767 543.794,-171.66 540.422,-165.839 542.763,-176.552 542.763,-176.552"/>
</g>
<!-- AdminUser -->
<g id="node8" class="node"><title>AdminUser</title>
<path fill="none" stroke="black" d="M824,-248.5C824,-248.5 1000,-248.5 1000,-248.5 1006,-248.5 1012,-254.5 1012,-260.5 1012,-260.5 1012,-462.5 1012,-462.5 1012,-468.5 1006,-474.5 1000,-474.5 1000,-474.5 824,-474.5 824,-474.5 818,-474.5 812,-468.5 812,-462.5 812,-462.5 812,-260.5 812,-260.5 812,-254.5 818,-248.5 824,-248.5"/>
<text text-anchor="middle" x="912" y="-459.3" font-family="Times,serif" font-size="14.00">AdminUser</text>
<polyline fill="none" stroke="black" points="812,-451.5 1012,-451.5 "/>
<text text-anchor="start" x="820" y="-436.3" font-family="Times,serif" font-size="14.00">id :INTEGER</text>
<text text-anchor="start" x="820" y="-421.3" font-family="Times,serif" font-size="14.00">email :varchar</text>
<text text-anchor="start" x="820" y="-406.3" font-family="Times,serif" font-size="14.00">encrypted_password :varchar</text>
<text text-anchor="start" x="820" y="-391.3" font-family="Times,serif" font-size="14.00">reset_password_token :varchar</text>
<text text-anchor="start" x="820" y="-376.3" font-family="Times,serif" font-size="14.00">reset_password_sent_at :datetime</text>
<text text-anchor="start" x="820" y="-361.3" font-family="Times,serif" font-size="14.00">remember_created_at :datetime</text>
<text text-anchor="start" x="820" y="-346.3" font-family="Times,serif" font-size="14.00">sign_in_count :integer</text>
<text text-anchor="start" x="820" y="-331.3" font-family="Times,serif" font-size="14.00">current_sign_in_at :datetime</text>
<text text-anchor="start" x="820" y="-316.3" font-family="Times,serif" font-size="14.00">last_sign_in_at :datetime</text>
<text text-anchor="start" x="820" y="-301.3" font-family="Times,serif" font-size="14.00">current_sign_in_ip :varchar</text>
<text text-anchor="start" x="820" y="-286.3" font-family="Times,serif" font-size="14.00">last_sign_in_ip :varchar</text>
<text text-anchor="start" x="820" y="-271.3" font-family="Times,serif" font-size="14.00">created_at :datetime</text>
<text text-anchor="start" x="820" y="-256.3" font-family="Times,serif" font-size="14.00">updated_at :datetime</text>
</g>
</g>
</svg>
